<?xml version="1.0" standalone="no"?>
<!DOCTYPE svg PUBLIC "-//W3C//DTD SVG 20010904//EN"
 "http://www.w3.org/TR/2001/REC-SVG-20010904/DTD/svg10.dtd">
<svg version="1.0" xmlns="http://www.w3.org/2000/svg"
 width="191.000000pt" height="191.000000pt" viewBox="0 0 191.000000 191.000000"
 preserveAspectRatio="xMidYMid meet">
<metadata>
Created by potrace 1.11, written by Peter Selinger 2001-2013
</metadata>
<g transform="translate(0.000000,191.000000) scale(0.100000,-0.100000)"
fill="#000000" stroke="none">
<path d="M1520 1895 c7 -8 20 -15 30 -15 10 0 23 7 30 15 11 13 7 15 -30 15
-37 0 -41 -2 -30 -15z"/>
<path d="M754 1805 c-4 -8 -28 -21 -54 -29 -27 -8 -61 -22 -77 -32 -39 -24
-93 -82 -93 -100 0 -9 -18 -33 -40 -55 -22 -22 -40 -44 -40 -49 0 -6 -16 -27
-35 -48 -40 -45 -49 -67 -66 -154 -13 -68 -13 -134 1 -207 7 -39 5 -51 -16
-86 -13 -22 -37 -53 -53 -69 -29 -28 -32 -28 -105 -21 -65 6 -76 4 -76 -9 0
-9 12 -17 33 -20 17 -3 66 -10 107 -16 116 -18 119 -18 129 -24 5 -4 12 2 16
13 8 26 41 33 59 12 20 -22 20 -35 1 -27 -35 13 -69 -56 -46 -93 7 -10 12 -7
22 15 8 16 22 30 31 32 14 3 17 -6 20 -45 2 -26 7 47 12 164 4 116 5 226 1
243 -4 20 -2 41 6 56 16 30 23 30 37 0 16 -35 47 -23 72 29 23 48 42 52 68 13
21 -31 80 -98 86 -98 7 0 -31 65 -60 105 -32 44 -36 67 -15 92 15 18 30 22 90
24 40 2 75 7 77 11 3 5 9 6 14 3 5 -3 22 1 38 9 15 8 66 20 112 26 75 10 91
10 138 -6 75 -26 97 -54 117 -148 9 -43 27 -103 41 -133 16 -37 29 -90 37
-161 13 -114 15 -427 3 -440 -4 -4 -14 1 -21 11 -17 23 -23 12 -19 -35 2 -21
-1 -40 -5 -43 -11 -6 -23 23 -15 36 3 5 3 9 -1 9 -3 0 -10 -11 -15 -25 -8 -22
-13 -24 -29 -15 -13 7 -22 7 -26 0 -3 -5 -1 -10 4 -10 6 0 11 -4 11 -10 0 -5
-7 -7 -15 -4 -19 8 -20 -10 -1 -26 15 -12 11 -44 -5 -35 -4 3 -6 12 -2 20 3 9
-1 15 -10 15 -8 0 -17 -7 -21 -15 -3 -8 -1 -15 4 -15 6 0 10 -5 10 -11 0 -5
-4 -8 -9 -4 -6 3 -15 -4 -22 -17 -17 -31 -49 -64 -49 -50 0 7 -4 12 -10 12 -5
0 -10 -7 -10 -15 0 -9 -6 -12 -15 -9 -8 4 -22 1 -30 -6 -8 -7 -21 -10 -29 -7
-8 3 -16 -2 -19 -14 -3 -13 -11 -17 -21 -13 -9 4 -16 1 -16 -6 0 -14 -89 -8
-146 9 -19 5 -36 5 -41 0 -14 -14 -140 71 -160 108 -10 18 -23 33 -29 33 -20
0 -45 37 -59 87 l-13 48 -1 -56 c-1 -50 -4 -58 -37 -90 -20 -18 -54 -59 -76
-89 -23 -30 -48 -61 -57 -68 -24 -19 -118 -5 -164 26 -36 24 -38 24 -57 7 -18
-17 -20 -31 -20 -167 l0 -148 190 0 190 0 0 70 c0 115 26 205 83 282 33 44 48
40 18 -5 -35 -52 -43 -78 -31 -97 8 -12 10 -12 16 3 5 15 8 14 24 -6 11 -13
22 -37 25 -53 10 -41 85 -194 96 -194 12 0 12 3 -6 36 -8 16 -19 51 -25 79
-17 89 -40 239 -36 243 2 2 26 -18 53 -43 26 -26 72 -61 102 -78 30 -17 48
-33 41 -35 -9 -3 -5 -9 11 -18 l24 -13 -24 -1 c-29 0 -25 -5 11 -14 18 -4 32
-1 42 10 15 14 16 14 16 -1 0 -8 -7 -18 -15 -22 -12 -4 -10 -9 11 -19 34 -18
70 -11 98 19 12 13 27 22 32 20 6 -2 17 3 24 12 7 8 17 15 23 15 5 0 31 17 56
37 25 21 49 37 54 35 4 -1 10 5 13 13 4 8 15 15 25 15 28 0 25 -55 -6 -115
-13 -27 -22 -51 -20 -54 3 -2 5 0 5 5 0 14 50 69 62 69 6 0 19 18 28 39 9 22
19 36 22 30 5 -8 -21 -177 -37 -236 l-7 -28 256 0 256 0 0 165 c0 91 -4 165
-8 165 -4 0 -23 -11 -42 -25 -34 -25 -93 -34 -105 -15 -9 15 -25 12 -25 -5 0
-19 -42 -29 -76 -18 -19 6 -31 21 -41 47 -12 35 -11 38 6 43 11 3 21 15 23 28
9 47 9 152 -1 178 -10 25 -14 26 -88 29 l-78 3 -3 38 c-2 20 0 37 5 37 4 0 7
25 6 55 -2 70 5 96 26 94 31 -3 32 1 12 30 -25 34 -27 83 -5 101 8 8 23 30 33
51 15 31 18 58 15 165 -3 139 -15 206 -47 269 -34 67 -60 97 -104 116 -24 10
-43 25 -43 34 0 8 -4 15 -9 15 -5 0 -13 9 -16 21 -9 27 -45 69 -60 69 -7 0
-24 9 -39 21 -29 23 -73 38 -128 44 -20 2 -52 11 -71 18 -21 9 -40 11 -49 6
-10 -6 -33 0 -67 16 -60 29 -60 29 -67 10z m246 -65 c8 -5 11 -10 5 -10 -5 0
-17 5 -25 10 -8 5 -10 10 -5 10 6 0 17 -5 25 -10z m-320 -154 c0 -2 -15 -6
-34 -8 -19 -2 -32 0 -30 4 5 8 64 12 64 4z m-446 -1405 c21 -23 6 -37 -34 -32
-33 4 -34 5 -20 30 13 26 32 27 54 2z m-84 -29 c0 -5 -7 -9 -15 -9 -8 0 -12 4
-9 9 3 4 9 8 15 8 5 0 9 -4 9 -8z m-10 -32 c0 -5 -2 -10 -4 -10 -3 0 -8 5 -11
10 -3 6 -1 10 4 10 6 0 11 -4 11 -10z"/>
<path d="M996 1115 c-44 -48 -60 -86 -52 -127 5 -27 13 -35 43 -45 26 -8 40
-8 44 -1 7 10 102 13 118 3 9 -5 77 27 92 43 4 4 9 19 13 35 6 24 2 29 -29 44
-19 9 -35 20 -35 25 0 4 -7 5 -15 2 -8 -4 -24 5 -37 21 -16 18 -37 28 -65 32
-40 5 -45 3 -77 -32z m147 -135 c20 0 37 -4 37 -9 0 -7 -30 -8 -102 -2 -11 1
-15 7 -11 21 5 19 7 19 23 5 9 -8 33 -15 53 -15z"/>
<path d="M1189 1121 c7 -12 17 -18 27 -14 17 6 17 6 -14 22 -22 12 -23 11 -13
-8z"/>
<path d="M670 1114 c-44 -19 -45 -21 -31 -38 10 -12 6 -16 -24 -26 -40 -13
-74 -55 -58 -71 6 -6 20 -6 39 1 23 9 31 8 41 -6 10 -13 21 -15 60 -10 l48 7
-33 -31 c-18 -16 -29 -30 -25 -30 13 0 97 33 111 43 18 14 15 27 -5 20 -17 -6
-17 -6 -1 10 9 9 21 17 27 17 25 0 9 52 -28 90 -42 44 -65 48 -121 24z m-44
-99 c-55 -29 -57 -30 -49 -9 7 18 38 32 72 33 19 1 14 -5 -23 -24z"/>
<path d="M695 950 c-16 -7 -17 -9 -3 -9 9 -1 20 4 23 9 7 11 7 11 -20 0z"/>
<path d="M1428 944 c-16 -8 -28 -19 -28 -24 0 -14 18 -12 23 3 6 17 37 -10 53
-48 l13 -30 1 36 c0 21 -8 46 -17 57 -17 20 -20 20 -45 6z"/>
<path d="M951 786 c-7 -8 -27 -16 -44 -16 -68 -1 -90 -5 -95 -18 -7 -21 19
-44 44 -38 22 6 23 3 21 -31 l-2 -38 45 -1 c39 0 140 -35 140 -47 0 -3 -17 -1
-37 3 -56 13 -172 5 -217 -14 -47 -20 -46 -20 -46 2 0 32 -37 23 -59 -14 -24
-40 -24 -43 -11 -64 8 -12 12 -11 32 6 36 33 83 44 189 44 88 0 98 -2 92 -17
-5 -13 -3 -15 13 -9 44 17 74 17 105 2 39 -19 52 -10 51 35 -1 43 -28 66 -82
72 -58 6 -81 33 -73 85 3 20 2 34 -2 30 -4 -4 -17 5 -29 19 -19 22 -23 23 -35
9z"/>
<path d="M1485 749 c-5 -7 -3 -10 6 -7 8 3 22 1 33 -4 14 -8 17 -7 14 4 -6 17
-44 23 -53 7z"/>
<path d="M1627 693 c10 -78 15 -83 86 -83 80 0 89 7 85 61 l-3 44 -70 12
c-110 19 -106 20 -98 -34z"/>
<path d="M1651 536 c-7 -8 -11 -32 -9 -53 3 -34 6 -38 34 -41 24 -2 35 3 47
22 10 14 28 26 44 28 22 2 29 9 31 31 3 26 -11 37 -23 17 -3 -5 -19 -10 -35
-10 -16 0 -32 5 -35 10 -9 15 -41 12 -54 -4z"/>
<path d="M893 474 c-24 -10 -1 -34 33 -34 27 0 34 4 34 20 0 15 -6 20 -27 19
-16 0 -33 -3 -40 -5z"/>
</g>
</svg>
